<svg xmlns="http://www.w3.org/2000/svg" xmlns:xlink="http://www.w3.org/1999/xlink" width="375" viewBox="0 0 375 375" height="375" version="1.0"><defs><g id="a"><path d="M 1.609375 -36.53125 L 12.84375 -36.53125 C 14.632812 -36.53125 16.015625 -36.125 16.984375 -35.3125 C 17.960938 -34.507812 18.625 -33.378906 18.96875 -31.921875 C 19.3125 -30.460938 19.484375 -28.597656 19.484375 -26.328125 C 19.484375 -24.253906 19.210938 -22.632812 18.671875 -21.46875 C 18.128906 -20.3125 17.191406 -19.503906 15.859375 -19.046875 C 16.960938 -18.828125 17.765625 -18.273438 18.265625 -17.390625 C 18.765625 -16.515625 19.015625 -15.328125 19.015625 -13.828125 L 18.921875 0 L 11.78125 0 L 11.78125 -14.296875 C 11.78125 -15.316406 11.582031 -15.96875 11.1875 -16.25 C 10.789062 -16.53125 10.066406 -16.671875 9.015625 -16.671875 L 9.015625 0 L 1.609375 0 Z M 10.796875 -23.015625 C 11.816406 -23.015625 12.328125 -24.117188 12.328125 -26.328125 C 12.328125 -27.285156 12.285156 -28.003906 12.203125 -28.484375 C 12.117188 -28.972656 11.960938 -29.304688 11.734375 -29.484375 C 11.503906 -29.671875 11.179688 -29.765625 10.765625 -29.765625 L 9.0625 -29.765625 L 9.0625 -23.015625 Z M 10.796875 -23.015625"/></g><g id="b"><path d="M 1.609375 0 L 1.609375 -36.53125 L 16.25 -36.53125 L 16.25 -29.46875 L 9.0625 -29.46875 L 9.0625 -22.375 L 15.953125 -22.375 L 15.953125 -15.484375 L 9.0625 -15.484375 L 9.0625 -7.109375 L 16.71875 -7.109375 L 16.71875 0 Z M 1.609375 0"/></g><g id="c"><path d="M 4.46875 0 L 0.546875 -36.53125 L 7.703125 -36.53125 L 9.734375 -13.484375 L 11.78125 -36.53125 L 18.59375 -36.53125 L 20.546875 -13.484375 L 22.5 -36.53125 L 29.734375 -36.53125 L 25.734375 0 L 16.96875 0 L 15.140625 -17.609375 L 13.390625 0 Z M 4.46875 0"/></g><g id="d"><path d="M 1.28125 0 L 1.28125 -36.53125 L 8.34375 -36.53125 L 8.34375 0 Z M 1.28125 0"/></g><g id="e"><path d="M 1.609375 0 L 1.609375 -36.53125 L 9.140625 -36.53125 L 12.5 -19.046875 L 12.5 -36.53125 L 19.5625 -36.53125 L 19.5625 0 L 12.421875 0 L 8.765625 -18.28125 L 8.765625 0 Z M 1.609375 0"/></g><g id="f"><path d="M 1.609375 -36.53125 L 11.703125 -36.53125 C 14.304688 -36.53125 16.257812 -35.804688 17.5625 -34.359375 C 18.863281 -32.921875 19.53125 -30.78125 19.5625 -27.9375 L 19.65625 -10.84375 C 19.675781 -7.238281 19.046875 -4.53125 17.765625 -2.71875 C 16.492188 -0.90625 14.382812 0 11.4375 0 L 1.609375 0 Z M 10.25 -6.46875 C 11.582031 -6.46875 12.25 -7.117188 12.25 -8.421875 L 12.25 -27.265625 C 12.25 -28.085938 12.179688 -28.703125 12.046875 -29.109375 C 11.921875 -29.523438 11.6875 -29.800781 11.34375 -29.9375 C 11.007812 -30.082031 10.488281 -30.15625 9.78125 -30.15625 L 8.96875 -30.15625 L 8.96875 -6.46875 Z M 10.25 -6.46875"/></g></defs><path fill="#622691" d="M 214.453125 194.625 C 213.851562 194.589844 213.25 194.402344 212.738281 194.058594 C 211.34375 193.136719 210.875 191.261719 211.445312 189.726562 C 212.6875 186.367188 217.667969 186.558594 218.691406 189.957031 C 219.472656 192.5625 216.886719 195.171875 214.453125 194.625 Z M 202.785156 191.738281 C 201.230469 192.804688 199.171875 192.457031 197.980469 191.011719 C 196.839844 189.636719 196.824219 187.652344 198.101562 186.34375 C 199.238281 185.183594 201.085938 184.84375 202.453125 185.800781 C 202.65625 185.941406 202.832031 186.121094 202.996094 186.308594 C 203.285156 186.515625 203.542969 186.777344 203.757812 187.097656 C 204.804688 188.664062 204.308594 190.691406 202.785156 191.738281 Z M 158.796875 191.332031 C 157.894531 191.289062 157.011719 190.839844 156.441406 190.148438 C 155.789062 189.519531 155.425781 188.585938 155.511719 187.601562 C 155.675781 185.675781 157.4375 184.414062 159.3125 184.769531 C 161.003906 185.085938 162.164062 186.625 162.003906 188.339844 C 161.84375 190.007812 160.527344 191.421875 158.796875 191.332031 Z M 145.804688 193.722656 C 144.011719 193.867188 142.570312 192.554688 142.378906 190.871094 C 142.097656 189.585938 142.609375 188.109375 143.84375 187.367188 C 145.683594 186.257812 148.453125 187.160156 148.867188 189.386719 C 149.253906 191.460938 148 193.550781 145.804688 193.722656 Z M 227.082031 189.316406 C 226.386719 185.394531 225.582031 181.472656 224.902344 177.53125 C 210.742188 178.925781 196.367188 179.035156 182.210938 179.167969 C 165.679688 179.328125 149.226562 178.9375 132.742188 177.925781 C 132.597656 178.257812 132.460938 178.585938 132.339844 178.910156 C 131.179688 181.960938 130.183594 185.019531 129.40625 188.191406 C 128.753906 190.859375 128.292969 193.539062 127.894531 196.234375 C 132.382812 196.425781 136.886719 196.472656 141.355469 196.875 C 162.378906 196.613281 183.40625 196.632812 204.425781 196.59375 C 212.425781 196.574219 220.421875 196.660156 228.421875 196.773438 C 227.949219 194.304688 227.523438 191.816406 227.082031 189.316406"/><path d="M 195.242188 139.789062 C 194.625 139.75 194.019531 139.710938 193.429688 139.683594 C 192.40625 142.683594 191.402344 145.652344 191.300781 148.941406 C 191.234375 150.992188 191.523438 153.03125 192.289062 154.9375 C 192.542969 155.566406 192.871094 156.144531 193.222656 156.699219 C 193.964844 156.699219 194.71875 156.691406 195.472656 156.714844 C 194.125 154.964844 193.386719 152.65625 193.15625 150.507812 C 192.757812 146.816406 193.8125 143.195312 195.242188 139.789062"/><path d="M 177.027344 139.535156 C 173.429688 139.5 169.828125 139.445312 166.242188 139.242188 C 168.035156 141.960938 169.023438 145.195312 168.988281 148.492188 C 168.96875 150.664062 168.515625 153.421875 167.460938 155.75 C 170.71875 155.808594 173.984375 155.988281 177.222656 156.144531 C 178.390625 153.726562 179.203125 151.144531 179.246094 148.464844 C 179.296875 145.390625 178.585938 142.558594 177.253906 139.964844 C 177.179688 139.820312 177.101562 139.675781 177.027344 139.535156"/><path d="M 246.582031 163.015625 C 246.523438 165.769531 246.445312 168.523438 246.367188 171.277344 C 246.355469 171.644531 246.347656 172.007812 246.335938 172.375 L 246.335938 172.460938 C 245.738281 172.5 245.140625 172.523438 244.539062 172.539062 C 240 172.660156 235.339844 172.25 230.859375 172.175781 C 225.429688 172.085938 219.996094 171.992188 214.566406 171.902344 C 203.570312 171.714844 192.578125 171.511719 181.582031 171.433594 C 161.277344 171.296875 141.042969 172.101562 120.765625 172.648438 C 120.4375 172.660156 120.101562 172.664062 119.769531 172.675781 L 119.769531 172.683594 C 119.074219 172.699219 118.375 172.714844 117.683594 172.730469 C 117.671875 172.609375 117.660156 172.488281 117.65625 172.363281 C 117.429688 169.582031 117.324219 166.78125 117.179688 164.046875 C 116.863281 158.011719 116.664062 151.96875 116.449219 145.929688 C 116.050781 134.933594 115.695312 123.785156 116.21875 112.765625 L 116.21875 112.757812 C 116.222656 112.53125 116.234375 112.304688 116.25 112.078125 C 116.367188 112.074219 116.480469 112.066406 116.597656 112.066406 C 126.734375 111.636719 136.980469 111.914062 147.097656 111.953125 C 158.472656 111.996094 169.855469 112.046875 181.226562 112.074219 C 192.5 112.105469 203.765625 112.128906 215.03125 112.15625 C 220.820312 112.175781 226.597656 112.207031 232.386719 112.3125 C 236.414062 112.382812 240.601562 112.164062 244.683594 112.382812 C 244.871094 112.394531 245.054688 112.40625 245.238281 112.417969 C 245.269531 112.785156 245.300781 113.15625 245.332031 113.535156 C 245.796875 119.472656 246.164062 125.417969 246.410156 131.371094 C 246.429688 131.71875 246.441406 132.066406 246.457031 132.421875 C 246.609375 136.382812 246.710938 140.339844 246.742188 144.304688 C 246.804688 150.542969 246.714844 156.785156 246.582031 163.015625 Z M 251.804688 103.972656 C 250.007812 103.867188 248.210938 103.773438 246.429688 103.734375 C 244.753906 103.703125 243.074219 103.652344 241.398438 103.585938 C 236.753906 104.210938 231.820312 103.976562 227.214844 104.105469 C 221.449219 104.261719 215.679688 104.328125 209.917969 104.464844 C 198.050781 104.746094 186.019531 105.355469 174.191406 104.222656 C 174.152344 104.222656 174.152344 104.171875 174.191406 104.167969 C 186.070312 103.488281 198.019531 103.679688 209.917969 103.351562 C 214.402344 103.230469 218.886719 103.050781 223.367188 102.894531 C 186.328125 101.878906 149.324219 103.5 112.371094 106.074219 C 111.296875 106.144531 110.21875 106.222656 109.144531 106.300781 C 109.203125 111.09375 109.332031 115.886719 109.679688 120.675781 C 110.355469 130.128906 110.699219 139.542969 110.929688 149.003906 C 110.984375 146.667969 111.035156 144.328125 111.078125 141.988281 C 111.203125 135.636719 111.089844 129.121094 111.792969 122.808594 C 111.792969 122.796875 111.808594 122.796875 111.808594 122.808594 C 112.167969 129.160156 111.792969 135.625 111.792969 141.988281 C 111.792969 148.191406 111.960938 154.414062 112.125 160.617188 C 112.289062 167.007812 112.789062 173.40625 112.847656 179.792969 C 112.867188 182.597656 112.890625 185.382812 112.976562 188.179688 C 112.976562 186.914062 113.011719 185.644531 113.097656 184.386719 C 113.09375 179.164062 113.128906 173.9375 113.191406 168.703125 C 113.199219 168.636719 113.296875 168.636719 113.296875 168.703125 C 113.554688 174.152344 113.769531 179.59375 113.949219 185.042969 C 114.277344 188.53125 114.203125 192.097656 114.238281 195.589844 C 117.917969 195.335938 121.65625 195.796875 125.351562 196.078125 C 125.351562 193.988281 126.078125 191.789062 126.445312 189.769531 C 126.949219 187.058594 127.535156 184.367188 128.082031 181.667969 C 128.09375 181.640625 128.140625 181.644531 128.136719 181.671875 C 127.8125 184.261719 127.535156 186.855469 127.167969 189.429688 C 126.867188 191.5625 126.84375 194.042969 126.152344 196.132812 C 126.3125 196.144531 126.472656 196.160156 126.632812 196.164062 C 127.011719 193.339844 127.527344 190.539062 128.09375 187.832031 C 128.792969 184.472656 129.535156 181.078125 130.488281 177.78125 C 130.523438 177.660156 130.5625 177.53125 130.601562 177.410156 C 131.320312 177.421875 132.03125 177.425781 132.75 177.433594 C 132.816406 177.433594 132.886719 177.433594 132.953125 177.433594 C 149.1875 177.574219 165.441406 177.488281 181.660156 177.113281 C 195.949219 176.78125 210.25 175.699219 224.539062 175.316406 C 224.824219 175.304688 225.105469 175.296875 225.390625 175.292969 C 225.574219 176 225.75 176.714844 225.925781 177.425781 C 226.734375 180.734375 227.460938 184.078125 228.226562 187.394531 C 227.777344 185.21875 227.367188 183.042969 227.019531 180.84375 C 227.015625 180.824219 227.050781 180.8125 227.054688 180.832031 C 227.929688 183.675781 228.695312 186.523438 229.402344 189.414062 C 230.003906 191.84375 230.921875 194.320312 231.179688 196.8125 C 233.425781 196.847656 235.675781 196.878906 237.921875 196.914062 C 241.328125 196.96875 244.726562 197.035156 248.132812 197.105469 C 248.800781 187.761719 249.734375 178.4375 250.28125 169.082031 C 250.851562 159.324219 251.28125 149.5625 251.808594 139.804688 C 251.808594 139.769531 251.859375 139.769531 251.859375 139.804688 C 252.152344 151.871094 251.914062 164.09375 251.105469 176.253906 C 251.394531 174.332031 251.707031 172.417969 252.046875 170.503906 C 252.050781 170.453125 252.128906 170.464844 252.128906 170.515625 C 252.046875 174.109375 251.847656 177.699219 251.585938 181.28125 C 251.652344 180.960938 251.722656 180.632812 251.789062 180.3125 C 252.296875 171.871094 252.597656 163.410156 252.65625 154.945312 C 252.785156 137.941406 252.65625 120.949219 251.804688 103.972656"/><path fill="#854FAD" d="M 237.4375 161.03125 C 218.324219 161.21875 199.199219 160.800781 180.074219 161.039062 C 170.601562 161.152344 161.132812 161.140625 151.664062 161.21875 C 141.839844 161.300781 131.964844 161.558594 122.148438 161.121094 C 122.105469 161.113281 122.105469 161.054688 122.148438 161.046875 C 131.960938 160.382812 141.832031 160.402344 151.664062 160.253906 C 159.492188 160.136719 167.320312 159.949219 175.148438 159.832031 C 175.351562 159.828125 175.554688 159.828125 175.753906 159.820312 C 177.191406 159.800781 178.632812 159.78125 180.074219 159.765625 C 184.894531 159.714844 189.726562 159.628906 194.570312 159.554688 C 194.742188 159.554688 194.917969 159.550781 195.085938 159.550781 C 195.769531 159.539062 196.460938 159.527344 197.144531 159.523438 C 197.308594 159.523438 197.472656 159.519531 197.640625 159.519531 C 210.9375 159.351562 224.273438 159.429688 237.4375 160.878906 C 237.535156 160.886719 237.542969 161.03125 237.4375 161.03125 Z M 141.671875 142.5625 C 142.019531 141.9375 142.425781 141.371094 142.882812 140.847656 C 144.804688 138.390625 147.96875 136.90625 151.351562 137.292969 C 151.394531 137.300781 151.410156 137.332031 151.417969 137.367188 C 153.78125 137.554688 156.070312 138.597656 157.757812 140.648438 C 161.527344 145.234375 159.746094 152.523438 154.429688 154.9375 C 152.507812 155.8125 150.496094 156.011719 148.636719 155.65625 C 146.074219 155.902344 143.484375 154.640625 141.9375 152.488281 C 139.859375 149.601562 140.003906 145.597656 141.671875 142.5625 Z M 161.976562 149.054688 C 162.175781 145.699219 162.195312 142.332031 162.449219 138.980469 L 162.449219 138.972656 C 162.457031 138.824219 162.46875 138.671875 162.484375 138.515625 C 162.589844 138.503906 162.691406 138.5 162.792969 138.492188 C 163.578125 138.433594 164.363281 138.382812 165.148438 138.34375 C 165.296875 138.332031 165.441406 138.328125 165.589844 138.324219 C 169.117188 138.148438 172.652344 138.117188 176.183594 138.117188 C 176.445312 138.117188 176.707031 138.117188 176.964844 138.121094 C 178.613281 138.121094 180.257812 138.132812 181.902344 138.140625 C 185.371094 138.148438 188.847656 138.160156 192.316406 138.183594 C 192.679688 138.183594 193.050781 138.179688 193.429688 138.160156 C 193.601562 138.15625 193.777344 138.148438 193.953125 138.140625 C 194.625 138.105469 195.3125 138.066406 196.007812 138.046875 C 196.113281 138.039062 196.21875 138.035156 196.328125 138.035156 C 196.742188 138.023438 197.152344 138.023438 197.5625 138.027344 C 197.753906 138.035156 197.941406 138.039062 198.128906 138.054688 C 198.15625 138.644531 198.179688 139.242188 198.195312 139.832031 C 198.210938 140.273438 198.222656 140.722656 198.234375 141.164062 C 198.28125 143.382812 198.277344 145.597656 198.261719 147.804688 C 198.238281 150.796875 198.339844 153.898438 198.085938 156.914062 C 198.0625 157.238281 198.03125 157.558594 197.992188 157.878906 C 197.976562 158.085938 197.949219 158.285156 197.921875 158.480469 C 197.75 158.492188 197.574219 158.5 197.402344 158.503906 C 197.179688 158.511719 196.960938 158.511719 196.742188 158.503906 C 195.964844 158.503906 195.175781 158.460938 194.390625 158.398438 C 193.90625 158.367188 193.425781 158.320312 192.949219 158.277344 C 191.847656 158.179688 190.769531 158.074219 189.738281 158.03125 C 186.324219 157.875 182.914062 157.726562 179.5 157.566406 C 179.019531 157.542969 178.535156 157.519531 178.054688 157.503906 C 177.558594 157.480469 177.058594 157.464844 176.558594 157.441406 C 173.324219 157.320312 170.058594 157.222656 166.8125 156.996094 C 166.355469 156.960938 165.902344 156.929688 165.445312 156.886719 C 164.890625 156.839844 164.332031 156.792969 163.78125 156.730469 C 163.164062 156.675781 162.554688 156.605469 161.945312 156.523438 C 161.867188 156.296875 161.800781 156.054688 161.75 155.808594 C 161.328125 153.671875 161.871094 150.863281 161.976562 149.054688 Z M 205.207031 139.738281 C 208.386719 136.675781 213.582031 136.070312 217.503906 138.992188 C 223.117188 143.171875 222.769531 151.84375 216.894531 155.625 C 211.378906 159.179688 204.023438 156.730469 201.816406 150.492188 C 200.335938 146.328125 202.011719 142.082031 205.207031 139.738281 Z M 244.675781 144.304688 C 244.671875 142.320312 244.671875 140.335938 244.671875 138.34375 C 244.65625 138.757812 244.632812 139.171875 244.625 139.582031 C 244.554688 142.449219 244.472656 145.316406 244.355469 148.183594 C 244.132812 153.914062 244.019531 159.648438 243.625 165.375 C 243.625 165.40625 243.574219 165.410156 243.574219 165.375 C 243.414062 159.644531 243.535156 153.914062 243.542969 148.183594 C 243.546875 145.3125 243.578125 142.449219 243.628906 139.582031 C 243.664062 137.242188 243.496094 134.800781 243.894531 132.488281 C 223.761719 133.015625 203.644531 133.925781 183.5 133.992188 C 172.703125 134.03125 161.910156 134.496094 151.121094 134.632812 C 141.050781 134.761719 130.886719 134.402344 121.097656 131.804688 C 121.054688 131.792969 121.074219 131.726562 121.121094 131.738281 C 131.71875 133.800781 142.449219 133.847656 153.207031 133.617188 C 163.667969 133.386719 174.132812 133.175781 184.589844 132.742188 C 204.613281 131.914062 224.636719 131.859375 244.664062 131.414062 C 244.671875 125.464844 244.683594 119.523438 244.683594 113.574219 C 240.59375 113.765625 236.414062 113.523438 232.386719 113.574219 C 226.597656 113.636719 220.820312 113.636719 215.03125 113.617188 C 203.765625 113.574219 192.5 113.535156 181.226562 113.488281 C 169.855469 113.449219 158.472656 113.414062 147.097656 113.335938 C 136.996094 113.261719 126.75 113.394531 116.628906 112.78125 C 117.066406 122.710938 117.164062 132.671875 117.582031 142.613281 C 117.46875 134.324219 117.570312 125.929688 118.179688 117.6875 C 118.179688 117.652344 118.226562 117.652344 118.226562 117.6875 C 118.5625 126.800781 118.761719 135.882812 119.355469 144.992188 C 119.953125 154.046875 120.570312 163.089844 120.757812 172.164062 C 141.183594 170.859375 161.652344 170.132812 182.121094 170.285156 C 193.296875 170.359375 204.476562 170.570312 215.652344 170.761719 C 221.082031 170.859375 226.519531 170.953125 231.953125 171.046875 C 236.089844 171.117188 240.378906 170.90625 244.570312 171.144531 C 244.636719 168.253906 244.660156 165.363281 244.683594 162.46875 C 244.71875 156.414062 244.691406 150.359375 244.675781 144.304688"/><path fill="#040606" d="M 211.445312 189.726562 C 210.875 191.261719 211.34375 193.136719 212.738281 194.058594 C 213.25 194.402344 213.851562 194.589844 214.453125 194.625 C 216.886719 195.171875 219.472656 192.5625 218.691406 189.957031 C 217.667969 186.558594 212.6875 186.367188 211.445312 189.726562"/><path fill="#040606" d="M 204.269531 145.503906 C 204 145.378906 203.742188 145.394531 203.457031 145.445312 C 203.335938 145.460938 203.222656 145.472656 203.121094 145.476562 C 203.273438 144.585938 203.582031 143.742188 204.011719 142.949219 C 204.894531 141.75 206.019531 140.761719 207.265625 140.0625 L 207.273438 140.0625 C 207.273438 140.0625 207.277344 140.0625 207.277344 140.058594 C 207.304688 140.0625 207.324219 140.074219 207.351562 140.074219 C 207.382812 140.074219 207.417969 140.082031 207.445312 140.085938 C 207.425781 140.167969 207.425781 140.324219 207.433594 140.339844 C 207.40625 140.320312 207.382812 140.292969 207.359375 140.269531 C 207.203125 140.128906 206.871094 140.261719 206.964844 140.5 C 207.164062 140.988281 207.460938 141.417969 207.738281 141.867188 C 207.824219 142.015625 207.996094 142.089844 208.160156 142.042969 C 208.644531 141.917969 208.953125 141.53125 209.058594 141.042969 C 209.179688 140.460938 208.914062 139.910156 208.894531 139.347656 C 210.6875 138.742188 212.632812 138.71875 214.445312 139.460938 C 214.367188 139.496094 214.300781 139.542969 214.246094 139.636719 C 213.9375 140.191406 214.03125 140.964844 214.601562 141.308594 C 215.152344 141.644531 215.933594 141.472656 216.191406 140.855469 C 216.238281 140.746094 216.257812 140.621094 216.265625 140.5 C 216.265625 140.507812 216.269531 140.507812 216.269531 140.507812 C 216.421875 140.621094 216.570312 140.746094 216.722656 140.871094 C 218.234375 142.195312 219.136719 143.917969 219.449219 145.710938 L 219.449219 145.714844 C 219.167969 145.410156 218.742188 145.246094 218.28125 145.339844 C 217.371094 145.519531 216.957031 146.65625 217.589844 147.363281 C 217.597656 147.367188 217.597656 147.367188 217.601562 147.375 C 217.640625 147.460938 217.699219 147.546875 217.773438 147.601562 C 218.109375 147.855469 218.53125 147.90625 218.914062 147.789062 C 219.121094 147.773438 219.335938 147.742188 219.546875 147.714844 C 219.472656 148.757812 219.199219 149.777344 218.730469 150.722656 C 218.261719 151.671875 217.601562 152.53125 216.753906 153.253906 C 216.75 153.253906 216.75 153.257812 216.742188 153.257812 C 216.542969 152.472656 215.816406 151.863281 214.984375 151.804688 C 214.746094 151.789062 214.554688 151.980469 214.484375 152.183594 C 214.3125 152.6875 214.351562 153.152344 214.542969 153.644531 C 214.621094 153.84375 214.71875 154.074219 214.871094 154.230469 C 214.925781 154.285156 214.980469 154.324219 215.046875 154.363281 C 212.714844 155.511719 210.199219 155.503906 208.066406 154.589844 C 208.109375 154.351562 208.136719 154.097656 208.136719 153.851562 C 208.136719 153.195312 207.941406 152.570312 207.285156 152.285156 C 207.027344 152.167969 206.753906 152.144531 206.496094 152.191406 C 206.410156 152.195312 206.320312 152.207031 206.230469 152.238281 C 206.144531 152.269531 206.066406 152.304688 206 152.351562 C 205.785156 152.449219 205.589844 152.59375 205.40625 152.75 C 204.503906 151.816406 203.792969 150.648438 203.367188 149.28125 C 203.242188 148.867188 203.148438 148.457031 203.085938 148.050781 C 203.273438 148.132812 203.46875 148.171875 203.660156 148.171875 C 204.441406 148.171875 205.183594 147.539062 205.09375 146.667969 C 205.039062 146.167969 204.726562 145.710938 204.269531 145.503906 Z M 216.894531 155.625 C 222.769531 151.84375 223.117188 143.171875 217.503906 138.992188 C 213.582031 136.070312 208.386719 136.675781 205.207031 139.738281 C 202.011719 142.082031 200.335938 146.328125 201.816406 150.492188 C 204.023438 156.730469 211.378906 159.179688 216.894531 155.625"/><path fill="#040606" d="M 200.847656 188.785156 C 200.835938 188.769531 200.824219 188.75 200.8125 188.742188 L 200.816406 188.742188 C 200.835938 188.746094 200.851562 188.75 200.867188 188.761719 C 200.863281 188.769531 200.851562 188.78125 200.847656 188.785156 Z M 200.386719 189.472656 C 200.363281 189.453125 200.347656 189.425781 200.332031 189.402344 C 200.332031 189.402344 200.332031 189.398438 200.335938 189.398438 C 200.371094 189.386719 200.402344 189.375 200.441406 189.359375 C 200.421875 189.398438 200.402344 189.429688 200.386719 189.472656 Z M 202.996094 186.308594 C 202.832031 186.121094 202.65625 185.941406 202.453125 185.800781 C 201.085938 184.84375 199.238281 185.183594 198.101562 186.34375 C 196.824219 187.652344 196.839844 189.636719 197.980469 191.011719 C 199.171875 192.457031 201.230469 192.804688 202.785156 191.738281 C 204.308594 190.691406 204.804688 188.664062 203.757812 187.097656 C 203.542969 186.777344 203.285156 186.515625 202.996094 186.308594"/><path fill="#040606" d="M 165.679688 139.207031 C 165.726562 139.296875 165.777344 139.382812 165.828125 139.472656 C 167.277344 142.082031 168.136719 144.941406 168.128906 148.042969 C 168.128906 150.09375 167.714844 152.117188 166.976562 154.027344 C 166.746094 154.628906 166.453125 155.1875 166.140625 155.734375 C 165.441406 155.730469 164.746094 155.730469 164.046875 155.746094 C 164.398438 153.609375 163.765625 150.863281 163.613281 149.054688 C 163.324219 145.714844 163.1875 142.347656 162.847656 139.007812 C 163.789062 139.085938 164.730469 139.152344 165.679688 139.207031 Z M 177.027344 139.535156 C 177.101562 139.675781 177.179688 139.820312 177.253906 139.964844 C 178.585938 142.558594 179.296875 145.390625 179.246094 148.464844 C 179.203125 151.144531 178.390625 153.726562 177.222656 156.144531 C 173.984375 155.988281 170.71875 155.808594 167.460938 155.75 C 168.515625 153.421875 168.96875 150.664062 168.988281 148.492188 C 169.023438 145.195312 168.035156 141.960938 166.242188 139.242188 C 169.828125 139.445312 173.429688 139.5 177.027344 139.535156 Z M 181.902344 139.570312 C 185.371094 139.601562 188.847656 139.628906 192.316406 139.648438 C 192.445312 139.648438 192.578125 139.648438 192.707031 139.65625 C 191.210938 142.964844 190.167969 146.621094 190.277344 150.128906 C 190.34375 152.15625 190.785156 154.691406 191.867188 156.703125 C 191.324219 156.703125 190.796875 156.699219 190.277344 156.675781 C 186.863281 156.542969 183.453125 156.402344 180.039062 156.269531 C 179.667969 156.253906 179.296875 156.242188 178.925781 156.222656 C 181.921875 151.195312 181.394531 144.460938 178.054688 139.539062 C 179.339844 139.550781 180.617188 139.5625 181.902344 139.570312 Z M 195.242188 139.789062 C 193.8125 143.195312 192.757812 146.816406 193.15625 150.507812 C 193.386719 152.65625 194.125 154.964844 195.472656 156.714844 C 194.71875 156.691406 193.964844 156.699219 193.222656 156.699219 C 192.871094 156.144531 192.542969 155.566406 192.289062 154.9375 C 191.523438 153.03125 191.234375 150.992188 191.300781 148.941406 C 191.402344 145.652344 192.40625 142.683594 193.429688 139.683594 C 194.019531 139.710938 194.625 139.75 195.242188 139.789062 Z M 197.398438 139.855469 C 197.363281 140.269531 197.332031 140.679688 197.300781 141.09375 C 197.152344 143.15625 197.050781 145.21875 196.957031 147.269531 C 196.824219 150.148438 196.570312 153.140625 196.625 156.078125 C 195.214844 153.964844 194.367188 151.6875 194.234375 148.875 C 194.089844 145.792969 194.847656 142.761719 195.761719 139.808594 C 196.304688 139.84375 196.855469 139.859375 197.398438 139.855469 Z M 161.945312 156.523438 C 162.554688 156.605469 163.164062 156.675781 163.78125 156.730469 C 164.332031 156.792969 164.890625 156.839844 165.445312 156.886719 C 165.902344 156.929688 166.355469 156.960938 166.8125 156.996094 C 170.058594 157.222656 173.324219 157.320312 176.558594 157.441406 C 177.058594 157.464844 177.558594 157.480469 178.054688 157.503906 C 178.535156 157.519531 179.019531 157.542969 179.5 157.566406 C 182.914062 157.726562 186.324219 157.875 189.738281 158.03125 C 190.769531 158.074219 191.847656 158.179688 192.949219 158.277344 C 193.425781 158.320312 193.90625 158.367188 194.390625 158.398438 C 195.175781 158.460938 195.964844 158.503906 196.742188 158.503906 C 196.960938 158.511719 197.179688 158.511719 197.402344 158.503906 C 197.574219 158.5 197.75 158.492188 197.921875 158.480469 C 197.949219 158.285156 197.976562 158.085938 197.992188 157.878906 C 198.03125 157.558594 198.0625 157.238281 198.085938 156.914062 C 198.339844 153.898438 198.238281 150.796875 198.261719 147.804688 C 198.277344 145.597656 198.28125 143.382812 198.234375 141.164062 C 198.222656 140.722656 198.210938 140.273438 198.195312 139.832031 C 198.179688 139.242188 198.15625 138.644531 198.128906 138.054688 C 197.941406 138.039062 197.753906 138.035156 197.5625 138.027344 C 197.152344 138.023438 196.742188 138.023438 196.328125 138.035156 C 196.21875 138.035156 196.113281 138.039062 196.007812 138.046875 C 195.3125 138.066406 194.625 138.105469 193.953125 138.140625 C 193.777344 138.148438 193.601562 138.15625 193.429688 138.160156 C 193.050781 138.179688 192.679688 138.183594 192.316406 138.183594 C 188.847656 138.160156 185.371094 138.148438 181.902344 138.140625 C 180.257812 138.132812 178.613281 138.121094 176.964844 138.121094 C 176.707031 138.117188 176.445312 138.117188 176.183594 138.117188 C 172.652344 138.117188 169.117188 138.148438 165.589844 138.324219 C 165.441406 138.328125 165.296875 138.332031 165.148438 138.34375 C 164.363281 138.382812 163.578125 138.433594 162.792969 138.492188 C 162.691406 138.5 162.589844 138.503906 162.484375 138.515625 C 162.46875 138.671875 162.457031 138.824219 162.449219 138.972656 L 162.449219 138.980469 C 162.195312 142.332031 162.175781 145.699219 161.976562 149.054688 C 161.871094 150.863281 161.328125 153.671875 161.75 155.808594 C 161.800781 156.054688 161.867188 156.296875 161.945312 156.523438"/><path fill="#040606" d="M 159.3125 184.769531 C 157.4375 184.414062 155.675781 185.675781 155.511719 187.601562 C 155.425781 188.585938 155.789062 189.519531 156.441406 190.148438 C 157.011719 190.839844 157.894531 191.289062 158.796875 191.332031 C 160.527344 191.421875 161.84375 190.007812 162.003906 188.339844 C 162.164062 186.625 161.003906 185.085938 159.3125 184.769531"/><path fill="#040606" d="M 145.523438 141.074219 C 145.523438 141.074219 145.527344 141.074219 145.527344 141.070312 C 145.148438 142.058594 146.546875 142.757812 147.285156 142.046875 C 147.835938 141.519531 147.878906 140.683594 147.601562 139.984375 C 147.605469 139.984375 147.605469 139.984375 147.605469 139.984375 L 147.609375 139.984375 C 149.226562 139.441406 150.90625 139.46875 152.425781 139.949219 C 152.34375 140.417969 152.0625 140.867188 152.144531 141.371094 C 152.210938 141.8125 152.503906 142.171875 152.953125 142.253906 C 153.863281 142.417969 154.285156 141.671875 154.464844 140.914062 C 155.929688 141.886719 157.058594 143.335938 157.535156 145.074219 C 156.820312 144.890625 156.003906 145.332031 155.933594 146.191406 C 155.902344 146.589844 156.066406 146.953125 156.347656 147.21875 C 156.414062 147.292969 156.488281 147.351562 156.574219 147.394531 C 156.578125 147.394531 156.582031 147.402344 156.59375 147.40625 C 156.605469 147.414062 156.617188 147.417969 156.628906 147.425781 C 156.632812 147.425781 156.644531 147.429688 156.648438 147.433594 C 156.847656 147.539062 157.070312 147.605469 157.289062 147.628906 C 157.375 147.632812 157.460938 147.628906 157.53125 147.617188 C 157.609375 147.621094 157.691406 147.59375 157.761719 147.550781 L 157.761719 147.554688 C 157.730469 148.023438 157.648438 148.496094 157.515625 148.984375 C 157.050781 150.707031 156.089844 152.023438 154.859375 152.921875 C 154.84375 152.675781 154.765625 152.429688 154.644531 152.203125 C 154.21875 151.386719 153.074219 150.554688 152.242188 151.351562 C 151.925781 151.652344 151.792969 152.101562 151.859375 152.53125 C 151.953125 153.121094 152.332031 153.460938 152.707031 153.871094 C 152.738281 153.910156 152.773438 153.949219 152.808594 153.976562 C 150.976562 154.578125 148.90625 154.5 147.082031 153.726562 C 147.109375 153.605469 147.121094 153.472656 147.121094 153.351562 C 147.121094 153.214844 147.105469 153.074219 147.070312 152.953125 C 146.882812 152.25 146.289062 151.71875 145.550781 151.71875 C 145.28125 151.714844 144.871094 151.820312 144.546875 152.007812 L 144.546875 152.003906 C 144.132812 151.585938 143.769531 151.125 143.457031 150.59375 C 143.042969 149.902344 142.746094 149.199219 142.554688 148.496094 C 142.585938 148.484375 142.621094 148.464844 142.65625 148.453125 C 143.136719 148.257812 143.542969 147.960938 143.855469 147.578125 C 144.152344 147.199219 144.347656 146.738281 144.414062 146.214844 C 144.445312 145.980469 144.207031 145.816406 144.007812 145.804688 C 143.472656 145.769531 142.933594 145.730469 142.398438 145.738281 C 142.839844 143.957031 143.859375 142.28125 145.523438 141.074219 Z M 153.484375 140.363281 C 153.488281 140.367188 153.488281 140.367188 153.488281 140.367188 C 153.488281 140.367188 153.484375 140.367188 153.484375 140.375 C 153.484375 140.367188 153.484375 140.367188 153.484375 140.363281 Z M 153.539062 152.511719 C 153.539062 152.503906 153.539062 152.503906 153.539062 152.503906 L 153.539062 152.5 C 153.523438 152.394531 153.503906 152.289062 153.5 152.179688 C 153.523438 152.203125 153.542969 152.222656 153.566406 152.25 C 153.570312 152.289062 153.570312 152.324219 153.574219 152.371094 C 153.574219 152.398438 153.582031 152.4375 153.585938 152.472656 C 153.570312 152.484375 153.554688 152.496094 153.539062 152.511719 Z M 148.636719 155.65625 C 150.496094 156.011719 152.507812 155.8125 154.429688 154.9375 C 159.746094 152.523438 161.527344 145.234375 157.757812 140.648438 C 156.070312 138.597656 153.78125 137.554688 151.417969 137.367188 C 151.410156 137.332031 151.394531 137.300781 151.351562 137.292969 C 147.96875 136.90625 144.804688 138.390625 142.882812 140.847656 C 142.425781 141.371094 142.019531 141.9375 141.671875 142.5625 C 140.003906 145.597656 139.859375 149.601562 141.9375 152.488281 C 143.484375 154.640625 146.074219 155.902344 148.636719 155.65625"/><path fill="#040606" d="M 143.84375 187.367188 C 142.609375 188.109375 142.097656 189.585938 142.378906 190.871094 C 142.570312 192.554688 144.011719 193.867188 145.804688 193.722656 C 148 193.550781 149.253906 191.460938 148.867188 189.386719 C 148.453125 187.160156 145.683594 186.257812 143.84375 187.367188"/><path fill="#040606" d="M 237.4375 160.878906 C 224.273438 159.429688 210.9375 159.351562 197.640625 159.519531 C 197.472656 159.519531 197.308594 159.523438 197.144531 159.523438 C 196.460938 159.527344 195.769531 159.539062 195.085938 159.550781 C 194.917969 159.550781 194.742188 159.554688 194.570312 159.554688 C 189.726562 159.628906 184.894531 159.714844 180.074219 159.765625 C 178.632812 159.78125 177.191406 159.800781 175.753906 159.820312 C 175.554688 159.828125 175.351562 159.828125 175.148438 159.832031 C 167.320312 159.949219 159.492188 160.136719 151.664062 160.253906 C 141.832031 160.402344 131.960938 160.382812 122.148438 161.046875 C 122.105469 161.054688 122.105469 161.113281 122.148438 161.121094 C 131.964844 161.558594 141.839844 161.300781 151.664062 161.21875 C 161.132812 161.140625 170.601562 161.152344 180.074219 161.039062 C 199.199219 160.800781 218.324219 161.21875 237.4375 161.03125 C 237.542969 161.03125 237.535156 160.886719 237.4375 160.878906"/><path fill="#040606" d="M 244.664062 132.46875 C 244.664062 132.523438 244.664062 132.582031 244.664062 132.636719 C 244.660156 132.582031 244.648438 132.523438 244.644531 132.46875 C 244.648438 132.46875 244.660156 132.46875 244.664062 132.46875 Z M 244.683594 162.46875 C 244.660156 165.363281 244.636719 168.253906 244.570312 171.144531 C 240.378906 170.90625 236.089844 171.117188 231.953125 171.046875 C 226.519531 170.953125 221.082031 170.859375 215.652344 170.761719 C 204.476562 170.570312 193.296875 170.359375 182.121094 170.285156 C 161.652344 170.132812 141.183594 170.859375 120.757812 172.164062 C 120.570312 163.089844 119.953125 154.046875 119.355469 144.992188 C 118.761719 135.882812 118.5625 126.800781 118.226562 117.6875 C 118.226562 117.652344 118.179688 117.652344 118.179688 117.6875 C 117.570312 125.929688 117.46875 134.324219 117.582031 142.613281 C 117.164062 132.671875 117.066406 122.710938 116.628906 112.78125 C 126.75 113.394531 136.996094 113.261719 147.097656 113.335938 C 158.472656 113.414062 169.855469 113.449219 181.226562 113.488281 C 192.5 113.535156 203.765625 113.574219 215.03125 113.617188 C 220.820312 113.636719 226.597656 113.636719 232.386719 113.574219 C 236.414062 113.523438 240.59375 113.765625 244.683594 113.574219 C 244.683594 119.523438 244.671875 125.464844 244.664062 131.414062 C 224.636719 131.859375 204.613281 131.914062 184.589844 132.742188 C 174.132812 133.175781 163.667969 133.386719 153.207031 133.617188 C 142.449219 133.847656 131.71875 133.800781 121.121094 131.738281 C 121.074219 131.726562 121.054688 131.792969 121.097656 131.804688 C 130.886719 134.402344 141.050781 134.761719 151.121094 134.632812 C 161.910156 134.496094 172.703125 134.03125 183.5 133.992188 C 203.644531 133.925781 223.761719 133.015625 243.894531 132.488281 C 243.496094 134.800781 243.664062 137.242188 243.628906 139.582031 C 243.578125 142.449219 243.546875 145.3125 243.542969 148.183594 C 243.535156 153.914062 243.414062 159.644531 243.574219 165.375 C 243.574219 165.410156 243.625 165.40625 243.625 165.375 C 244.019531 159.648438 244.132812 153.914062 244.355469 148.183594 C 244.472656 145.316406 244.554688 142.449219 244.625 139.582031 C 244.632812 139.171875 244.65625 138.757812 244.671875 138.34375 C 244.671875 140.335938 244.671875 142.320312 244.675781 144.304688 C 244.691406 150.359375 244.71875 156.414062 244.683594 162.46875 Z M 246.457031 132.421875 C 246.441406 132.066406 246.429688 131.71875 246.410156 131.371094 C 246.164062 125.417969 245.796875 119.472656 245.332031 113.535156 C 245.300781 113.15625 245.269531 112.785156 245.238281 112.417969 C 245.054688 112.40625 244.871094 112.394531 244.683594 112.382812 C 240.601562 112.164062 236.414062 112.382812 232.386719 112.3125 C 226.597656 112.207031 220.820312 112.175781 215.03125 112.15625 C 203.765625 112.128906 192.5 112.105469 181.226562 112.074219 C 169.855469 112.046875 158.472656 111.996094 147.097656 111.953125 C 136.980469 111.914062 126.734375 111.636719 116.597656 112.066406 C 116.480469 112.066406 116.367188 112.074219 116.25 112.078125 C 116.234375 112.304688 116.222656 112.53125 116.21875 112.757812 L 116.21875 112.765625 C 115.695312 123.785156 116.050781 134.933594 116.449219 145.929688 C 116.664062 151.96875 116.863281 158.011719 117.179688 164.046875 C 117.324219 166.78125 117.429688 169.582031 117.65625 172.363281 C 117.660156 172.488281 117.671875 172.609375 117.683594 172.730469 C 118.375 172.714844 119.074219 172.699219 119.769531 172.683594 L 119.769531 172.675781 C 120.101562 172.664062 120.4375 172.660156 120.765625 172.648438 C 141.042969 172.101562 161.277344 171.296875 181.582031 171.433594 C 192.578125 171.511719 203.570312 171.714844 214.566406 171.902344 C 219.996094 171.992188 225.429688 172.085938 230.859375 172.175781 C 235.339844 172.25 240 172.660156 244.539062 172.539062 C 245.140625 172.523438 245.738281 172.5 246.335938 172.460938 L 246.335938 172.375 C 246.347656 172.007812 246.355469 171.644531 246.367188 171.277344 C 246.445312 168.523438 246.523438 165.769531 246.582031 163.015625 C 246.714844 156.785156 246.804688 150.542969 246.742188 144.304688 C 246.710938 140.339844 246.609375 136.382812 246.457031 132.421875"/><g fill="#FFC1B2" fill-opacity=".302"><use x="125.318" y="252.872" xmlns:xlink="http://www.w3.org/1999/xlink" xlink:href="#a" xlink:type="simple" xlink:actuate="onLoad" xlink:show="embed"/></g><g fill="#FFC1B2" fill-opacity=".302"><use x="145.598" y="252.872" xmlns:xlink="http://www.w3.org/1999/xlink" xlink:href="#b" xlink:type="simple" xlink:actuate="onLoad" xlink:show="embed"/></g><g fill="#FFC1B2" fill-opacity=".302"><use x="163.115" y="252.872" xmlns:xlink="http://www.w3.org/1999/xlink" xlink:href="#c" xlink:type="simple" xlink:actuate="onLoad" xlink:show="embed"/></g><g fill="#FFC1B2" fill-opacity=".302"><use x="193.386" y="252.872" xmlns:xlink="http://www.w3.org/1999/xlink" xlink:href="#d" xlink:type="simple" xlink:actuate="onLoad" xlink:show="embed"/></g><g fill="#FFC1B2" fill-opacity=".302"><use x="203.037" y="252.872" xmlns:xlink="http://www.w3.org/1999/xlink" xlink:href="#e" xlink:type="simple" xlink:actuate="onLoad" xlink:show="embed"/></g><g fill="#FFC1B2" fill-opacity=".302"><use x="224.21" y="252.872" xmlns:xlink="http://www.w3.org/1999/xlink" xlink:href="#f" xlink:type="simple" xlink:actuate="onLoad" xlink:show="embed"/></g><g fill="#FFC1B2" fill-opacity=".502"><use x="126.444" y="253.35" xmlns:xlink="http://www.w3.org/1999/xlink" xlink:href="#a" xlink:type="simple" xlink:actuate="onLoad" xlink:show="embed"/></g><g fill="#FFC1B2" fill-opacity=".502"><use x="146.724" y="253.35" xmlns:xlink="http://www.w3.org/1999/xlink" xlink:href="#b" xlink:type="simple" xlink:actuate="onLoad" xlink:show="embed"/></g><g fill="#FFC1B2" fill-opacity=".502"><use x="164.24" y="253.35" xmlns:xlink="http://www.w3.org/1999/xlink" xlink:href="#c" xlink:type="simple" xlink:actuate="onLoad" xlink:show="embed"/></g><g fill="#FFC1B2" fill-opacity=".502"><use x="194.511" y="253.35" xmlns:xlink="http://www.w3.org/1999/xlink" xlink:href="#d" xlink:type="simple" xlink:actuate="onLoad" xlink:show="embed"/></g><g fill="#FFC1B2" fill-opacity=".502"><use x="204.162" y="253.35" xmlns:xlink="http://www.w3.org/1999/xlink" xlink:href="#e" xlink:type="simple" xlink:actuate="onLoad" xlink:show="embed"/></g><g fill="#FFC1B2" fill-opacity=".502"><use x="225.335" y="253.35" xmlns:xlink="http://www.w3.org/1999/xlink" xlink:href="#f" xlink:type="simple" xlink:actuate="onLoad" xlink:show="embed"/></g><g fill="#040606"><use x="127.569" y="253.827" xmlns:xlink="http://www.w3.org/1999/xlink" xlink:href="#a" xlink:type="simple" xlink:actuate="onLoad" xlink:show="embed"/></g><g fill="#040606"><use x="147.849" y="253.827" xmlns:xlink="http://www.w3.org/1999/xlink" xlink:href="#b" xlink:type="simple" xlink:actuate="onLoad" xlink:show="embed"/></g><g fill="#040606"><use x="165.366" y="253.827" xmlns:xlink="http://www.w3.org/1999/xlink" xlink:href="#c" xlink:type="simple" xlink:actuate="onLoad" xlink:show="embed"/></g><g fill="#040606"><use x="195.637" y="253.827" xmlns:xlink="http://www.w3.org/1999/xlink" xlink:href="#d" xlink:type="simple" xlink:actuate="onLoad" xlink:show="embed"/></g><g fill="#040606"><use x="205.288" y="253.827" xmlns:xlink="http://www.w3.org/1999/xlink" xlink:href="#e" xlink:type="simple" xlink:actuate="onLoad" xlink:show="embed"/></g><g fill="#040606"><use x="226.461" y="253.827" xmlns:xlink="http://www.w3.org/1999/xlink" xlink:href="#f" xlink:type="simple" xlink:actuate="onLoad" xlink:show="embed"/></g></svg>